{
	"asset":{
		"copyright":"textures",
		"generator":"Khronos glTF Blender I/O v5.1.20",
		"version":"2.0"
	},
	"scene":0,
	"scenes":[
		{
			"name":"Scene",
			"nodes":[
				0,
				1,
				2,
				3,
				4
			]
		}
	],
	"nodes":[
		{
			"mesh":0,
			"name":"service_pistol_pistol_a",
			"rotation":[
				0,
				0.7071068286895752,
				0,
				0.7071067094802856
			],
			"translation":[
				0.010479404591023922,
				0,
				0.010479404591023922
			]
		},
		{
			"mesh":1,
			"name":"service_pistol_slide_a",
			"rotation":[
				0,
				0.7071068286895752,
				0,
				0.7071067094802856
			],
			"translation":[
				0.010479403659701347,
				0.06099604070186615,
				-0.01973199099302292
			]
		},
		{
			"mesh":2,
			"name":"service_pistol_magazine_loaded",
			"rotation":[
				0,
				0.7071068286895752,
				0,
				0.7071067094802856
			],
			"translation":[
				0.010479404591023922,
				0,
				0.010479404591023922
			]
		},
		{
			"mesh":3,
			"name":"service_pistol_hammer_a",
			"rotation":[
				0,
				0.7071068286895752,
				0,
				0.7071067094802856
			],
			"translation":[
				0.010479407384991646,
				0.049381040036678314,
				0.03950252756476402
			]
		},
		{
			"mesh":4,
			"name":"service_pistol_trigger_a",
			"rotation":[
				0,
				0.7071068286895752,
				0,
				0.7071067094802856
			],
			"translation":[
				0.010479401797056198,
				0.03575684875249863,
				-0.0407293401658535
			]
		}
	],
	"materials":[
		{
			"doubleSided":true,
			"name":"service_pistol",
			"normalTexture":{
				"index":0
			},
			"pbrMetallicRoughness":{
				"baseColorTexture":{
					"index":1
				},
				"metallicRoughnessTexture":{
					"index":2
				}
			}
		}
	],
	"meshes":[
		{
			"name":"Cylinder.003",
			"primitives":[
				{
					"attributes":{
						"POSITION":0,
						"NORMAL":1,
						"TEXCOORD_0":2
					},
					"indices":3,
					"material":0
				}
			]
		},
		{
			"name":"Cylinder.004",
			"primitives":[
				{
					"attributes":{
						"POSITION":4,
						"NORMAL":5,
						"TEXCOORD_0":6
					},
					"indices":7,
					"material":0
				}
			]
		},
		{
			"name":"Cube.011",
			"primitives":[
				{
					"attributes":{
						"POSITION":8,
						"NORMAL":9,
						"TEXCOORD_0":10
					},
					"indices":11,
					"material":0
				}
			]
		},
		{
			"name":"Cylinder.005",
			"primitives":[
				{
					"attributes":{
						"POSITION":12,
						"NORMAL":13,
						"TEXCOORD_0":14
					},
					"indices":15,
					"material":0
				}
			]
		},
		{
			"name":"Cylinder.010",
			"primitives":[
				{
					"attributes":{
						"POSITION":16,
						"NORMAL":17,
						"TEXCOORD_0":18
					},
					"indices":19,
					"material":0
				}
			]
		}
	],
	"textures":[
		{
			"sampler":0,
			"source":0
		},
		{
			"sampler":0,
			"source":1
		},
		{
			"sampler":0,
			"source":2
		}
	],
	"images":[
		{
			"mimeType":"image/png",
			"name":"service_pistol_nor_gl",
			"uri":"service_pistol_nor_gl.png"
		},
		{
			"mimeType":"image/jpeg",
			"name":"service_pistol_diff_4k",
			"uri":"service_pistol_diff_4k.jpg"
		},
		{
			"mimeType":"image/png",
			"name":"service_pistol_metal-service_pistol_rough",
			"uri":"service_pistol_metal-service_pistol_rough.png"
		}
	],
	"accessors":[
		{
			"bufferView":0,
			"componentType":5126,
			"count":5575,
			"max":[
				0.1737671047449112,
				0.07768678665161133,
				0.015699058771133423
			],
			"min":[
				-0.048149969428777695,
				-0.05095423758029938,
				-0.01569906249642372
			],
			"type":"VEC3"
		},
		{
			"bufferView":1,
			"componentType":5126,
			"count":5575,
			"type":"VEC3"
		},
		{
			"bufferView":2,
			"componentType":5126,
			"count":5575,
			"type":"VEC2"
		},
		{
			"bufferView":3,
			"componentType":5123,
			"count":14838,
			"type":"SCALAR"
		},
		{
			"bufferView":4,
			"componentType":5126,
			"count":2488,
			"max":[
				0.0759648010134697,
				0.0175345316529274,
				0.013049602508544922
			],
			"min":[
				-0.06646916270256042,
				-0.014713682234287262,
				-0.016125280410051346
			],
			"type":"VEC3"
		},
		{
			"bufferView":5,
			"componentType":5126,
			"count":2488,
			"type":"VEC3"
		},
		{
			"bufferView":6,
			"componentType":5126,
			"count":2488,
			"type":"VEC2"
		},
		{
			"bufferView":7,
			"componentType":5123,
			"count":6636,
			"type":"SCALAR"
		},
		{
			"bufferView":8,
			"componentType":5126,
			"count":8667,
			"max":[
				0.029107825830578804,
				0.05509714037179947,
				0.00889295618981123
			],
			"min":[
				-0.027809303253889084,
				-0.052137792110443115,
				-0.00872087012976408
			],
			"type":"VEC3"
		},
		{
			"bufferView":9,
			"componentType":5126,
			"count":8667,
			"type":"VEC3"
		},
		{
			"bufferView":10,
			"componentType":5126,
			"count":8667,
			"type":"VEC2"
		},
		{
			"bufferView":11,
			"componentType":5123,
			"count":27282,
			"type":"SCALAR"
		},
		{
			"bufferView":12,
			"componentType":5126,
			"count":294,
			"max":[
				0.005073480308055878,
				0.014428041875362396,
				0.0021048346534371376
			],
			"min":[
				-0.012121560052037239,
				-0.0014733895659446716,
				-0.0021048339549452066
			],
			"type":"VEC3"
		},
		{
			"bufferView":13,
			"componentType":5126,
			"count":294,
			"type":"VEC3"
		},
		{
			"bufferView":14,
			"componentType":5126,
			"count":294,
			"type":"VEC2"
		},
		{
			"bufferView":15,
			"componentType":5123,
			"count":816,
			"type":"SCALAR"
		},
		{
			"bufferView":16,
			"componentType":5126,
			"count":140,
			"max":[
				0.011394362896680832,
				0.007711358368396759,
				0.002937357872724533
			],
			"min":[
				-0.00849888101220131,
				-0.027086246758699417,
				-0.0040626442059874535
			],
			"type":"VEC3"
		},
		{
			"bufferView":17,
			"componentType":5126,
			"count":140,
			"type":"VEC3"
		},
		{
			"bufferView":18,
			"componentType":5126,
			"count":140,
			"type":"VEC2"
		},
		{
			"bufferView":19,
			"componentType":5123,
			"count":378,
			"type":"SCALAR"
		}
	],
	"bufferViews":[
		{
			"buffer":0,
			"byteLength":66900,
			"byteOffset":0,
			"target":34962
		},
		{
			"buffer":0,
			"byteLength":66900,
			"byteOffset":66900,
			"target":34962
		},
		{
			"buffer":0,
			"byteLength":44600,
			"byteOffset":133800,
			"target":34962
		},
		{
			"buffer":0,
			"byteLength":29676,
			"byteOffset":178400,
			"target":34963
		},
		{
			"buffer":0,
			"byteLength":29856,
			"byteOffset":208076,
			"target":34962
		},
		{
			"buffer":0,
			"byteLength":29856,
			"byteOffset":237932,
			"target":34962
		},
		{
			"buffer":0,
			"byteLength":19904,
			"byteOffset":267788,
			"target":34962
		},
		{
			"buffer":0,
			"byteLength":13272,
			"byteOffset":287692,
			"target":34963
		},
		{
			"buffer":0,
			"byteLength":104004,
			"byteOffset":300964,
			"target":34962
		},
		{
			"buffer":0,
			"byteLength":104004,
			"byteOffset":404968,
			"target":34962
		},
		{
			"buffer":0,
			"byteLength":69336,
			"byteOffset":508972,
			"target":34962
		},
		{
			"buffer":0,
			"byteLength":54564,
			"byteOffset":578308,
			"target":34963
		},
		{
			"buffer":0,
			"byteLength":3528,
			"byteOffset":632872,
			"target":34962
		},
		{
			"buffer":0,
			"byteLength":3528,
			"byteOffset":636400,
			"target":34962
		},
		{
			"buffer":0,
			"byteLength":2352,
			"byteOffset":639928,
			"target":34962
		},
		{
			"buffer":0,
			"byteLength":1632,
			"byteOffset":642280,
			"target":34963
		},
		{
			"buffer":0,
			"byteLength":1680,
			"byteOffset":643912,
			"target":34962
		},
		{
			"buffer":0,
			"byteLength":1680,
			"byteOffset":645592,
			"target":34962
		},
		{
			"buffer":0,
			"byteLength":1120,
			"byteOffset":647272,
			"target":34962
		},
		{
			"buffer":0,
			"byteLength":756,
			"byteOffset":648392,
			"target":34963
		}
	],
	"samplers":[
		{
			"magFilter":9729,
			"minFilter":9987
		}
	],
	"buffers":[
		{
			"byteLength":649148,
			"uri":"service_pistol.bin"
		}
	]
}
